<svg width="512" height="512" viewBox="0 0 36 36" xmlns="http://www.w3.org/2000/svg">
    <path fill="currentColor" d="m19.61 18l4.86-4.86a1 1 0 0 0-1.41-1.41l-4.86 4.81l-4.89-4.89a1 1 0 0 0-1.41 1.41L16.78 18L12 22.72a1 1 0 1 0 1.41 1.41l4.77-4.77l4.74 4.74a1 1 0 0 0 1.41-1.41Z" class="clr-i-outline clr-i-outline-path-1"/>
    <path fill="currentColor" d="M18 34a16 16 0 1 1 16-16a16 16 0 0 1-16 16Zm0-30a14 14 0 1 0 14 14A14 14 0 0 0 18 4Z" class="clr-i-outline clr-i-outline-path-2"/>
    <path fill="none" d="M0 0h36v36H0z"/>
</svg>