<?xml version="1.0" ?><svg data-name="Layer 1" id="Layer_1" viewBox="0 0 32 32" xmlns="http://www.w3.org/2000/svg"><title/><path d="M30.5,14H1.5A1.5,1.5,0,0,0,0,15.5v10A1.5,1.5,0,0,0,1.5,27h29A1.5,1.5,0,0,0,32,25.5v-10A1.5,1.5,0,0,0,30.5,14ZM31,25.5a0.5,0.5,0,0,1-.5.5H1.5A0.5,0.5,0,0,1,1,25.5v-10A0.5,0.5,0,0,1,1.5,15h29a0.5,0.5,0,0,1,.5.5v10Z"/><polygon points="23 22 22 22 22 23 24 23 24 20 23 20 23 22"/><rect height="1" width="3" x="21" y="24"/><rect height="1" width="18" x="4" y="20"/><rect height="1" width="1" x="2" y="20"/><rect height="1" width="1" x="2" y="16"/><rect height="1" width="2" x="2" y="22"/><rect height="1" width="3" x="2" y="24"/><rect height="1" width="14" x="6" y="24"/><rect height="1" width="16" x="5" y="22"/><rect height="1" width="22" x="2" y="18"/><rect height="1" width="5" x="25" y="18"/><rect height="1" width="20" x="4" y="16"/><rect height="1" width="5" x="25" y="20"/><polygon points="28 23 27 23 27 24 26 24 26 25 29 25 29 24 28 24 28 23"/><path d="M13.5,12H18a3.5,3.5,0,0,0,0-7H13.5A3.5,3.5,0,0,0,13.5,12Zm7-3.5A2.5,2.5,0,0,1,18,11H16V6h2A2.5,2.5,0,0,1,20.5,8.5ZM13.5,6H15v5H13.5A2.5,2.5,0,0,1,13.5,6Z"/><rect height="1" width="2" x="12" y="8"/></svg>