<svg width="21" height="21" viewBox="0 0 21 21" fill="none" xmlns="http://www.w3.org/2000/svg">
<path d="M6.24884 12.8671C6.09296 12.8706 5.94091 12.8132 5.81916 12.705C5.69741 12.5967 5.61367 12.4444 5.58252 12.2745L4.02331 3.5412C3.93249 3.0379 3.68774 2.58506 3.33063 2.25964C2.97351 1.93421 2.52607 1.75626 2.0643 1.75602H0.91822C0.741499 1.75602 0.572016 1.67798 0.447055 1.53906C0.322094 1.40014 0.251892 1.21173 0.251892 1.01528C0.251892 0.81882 0.322094 0.63041 0.447055 0.491494C0.572016 0.352578 0.741499 0.274536 0.91822 0.274536H2.0643C2.83235 0.274362 3.57686 0.56919 4.17183 1.10912C4.76681 1.64906 5.1757 2.40093 5.32931 3.2375L6.91517 11.9782C6.93453 12.0757 6.93598 12.1764 6.91945 12.2745C6.90291 12.3725 6.86873 12.4659 6.81895 12.5489C6.76916 12.6319 6.70481 12.7029 6.62974 12.7576C6.55468 12.8123 6.47045 12.8495 6.38211 12.8671H6.24884Z" fill="#172554"/>
<path d="M6.91515 18.0524H5.67578C4.96907 18.0476 4.29099 17.7414 3.78142 17.197C3.27185 16.6526 2.96966 15.9116 2.93718 15.1267C2.9047 14.3419 3.14442 13.5732 3.60687 12.9791C4.06933 12.385 4.71925 12.0109 5.42257 11.9339L17.6897 10.6969L18.7625 4.71909H4.91617C4.73944 4.71909 4.56996 4.64105 4.445 4.50213C4.32004 4.36322 4.24984 4.17481 4.24984 3.97835C4.24984 3.78189 4.32004 3.59348 4.445 3.45457C4.56996 3.31565 4.73944 3.23761 4.91617 3.23761H19.5754C19.6738 3.23833 19.7709 3.26329 19.8596 3.31068C19.9483 3.35806 20.0264 3.42671 20.0885 3.51168C20.1536 3.59499 20.2012 3.69344 20.2277 3.79981C20.2542 3.90618 20.259 4.0178 20.2417 4.1265L18.9091 11.5339C18.8809 11.6906 18.8079 11.8329 18.7011 11.9397C18.5942 12.0465 18.4591 12.112 18.316 12.1265L5.54251 13.4154C5.1661 13.435 4.81212 13.6201 4.55845 13.9299C4.30478 14.2397 4.1722 14.6488 4.18987 15.0672C4.20754 15.4857 4.37402 15.8792 4.65268 16.1612C4.93134 16.4432 5.29936 16.5906 5.67578 16.5709H6.91515C7.09187 16.5709 7.26135 16.649 7.38631 16.7879C7.51127 16.9268 7.58148 17.1152 7.58148 17.3117C7.58148 17.5081 7.51127 17.6965 7.38631 17.8355C7.26135 17.9744 7.09187 18.0524 6.91515 18.0524Z" fill="#172554"/>
<path d="M16.91 20.2746C16.3829 20.2746 15.8675 20.1008 15.4292 19.7752C14.9909 19.4496 14.6493 18.9869 14.4476 18.4455C14.2458 17.9041 14.1931 17.3083 14.2959 16.7336C14.3987 16.1588 14.6526 15.6308 15.0253 15.2165C15.3981 14.8021 15.873 14.5199 16.39 14.4056C16.907 14.2912 17.443 14.3499 17.93 14.5742C18.417 14.7984 18.8333 15.1782 19.1261 15.6655C19.419 16.1527 19.5753 16.7256 19.5753 17.3116C19.5753 18.0974 19.2945 18.8511 18.7947 19.4067C18.2948 19.9624 17.6169 20.2746 16.91 20.2746ZM16.91 15.8301C16.6464 15.8301 16.3888 15.917 16.1696 16.0798C15.9505 16.2426 15.7797 16.474 15.6788 16.7447C15.5779 17.0154 15.5515 17.3132 15.603 17.6006C15.6544 17.888 15.7813 18.152 15.9677 18.3592C16.154 18.5664 16.3915 18.7074 16.65 18.7646C16.9085 18.8218 17.1765 18.7924 17.42 18.6803C17.6635 18.5682 17.8716 18.3783 18.0181 18.1347C18.1645 17.891 18.2427 17.6046 18.2427 17.3116C18.2427 16.9187 18.1023 16.5419 17.8523 16.264C17.6024 15.9862 17.2634 15.8301 16.91 15.8301Z" fill="#172554"/>
<path d="M8.91415 20.2746C8.387 20.2746 7.87169 20.1008 7.43339 19.7752C6.99508 19.4496 6.65346 18.9869 6.45173 18.4455C6.25 17.9041 6.19721 17.3083 6.30005 16.7336C6.4029 16.1588 6.65674 15.6308 7.02949 15.2165C7.40224 14.8021 7.87716 14.5199 8.39418 14.4056C8.9112 14.2912 9.4471 14.3499 9.93412 14.5742C10.4211 14.7984 10.8374 15.1782 11.1303 15.6655C11.4231 16.1527 11.5795 16.7256 11.5795 17.3116C11.5795 18.0974 11.2987 18.8511 10.7988 19.4067C10.299 19.9624 9.62104 20.2746 8.91415 20.2746ZM8.91415 15.8301C8.65058 15.8301 8.39292 15.917 8.17377 16.0798C7.95462 16.2426 7.78381 16.474 7.68294 16.7447C7.58207 17.0154 7.55568 17.3132 7.6071 17.6006C7.65852 17.888 7.78545 18.152 7.97182 18.3592C8.1582 18.5664 8.39566 18.7074 8.65417 18.7646C8.91268 18.8218 9.18063 18.7924 9.42414 18.6803C9.66765 18.5682 9.87578 18.3783 10.0222 18.1347C10.1687 17.891 10.2468 17.6046 10.2468 17.3116C10.2468 16.9187 10.1064 16.5419 9.85648 16.264C9.60656 15.9862 9.2676 15.8301 8.91415 15.8301Z" fill="#172554"/>
<path d="M14.9111 18.0524H10.9131C10.7364 18.0524 10.5669 17.9744 10.4419 17.8354C10.317 17.6965 10.2468 17.5081 10.2468 17.3117C10.2468 17.1152 10.317 16.9268 10.4419 16.7879C10.5669 16.649 10.7364 16.5709 10.9131 16.5709H14.9111C15.0878 16.5709 15.2573 16.649 15.3822 16.7879C15.5072 16.9268 15.5774 17.1152 15.5774 17.3117C15.5774 17.5081 15.5072 17.6965 15.3822 17.8354C15.2573 17.9744 15.0878 18.0524 14.9111 18.0524Z" fill="#172554"/>
</svg>
