<svg width="21" height="20" viewBox="0 0 21 20" fill="none" xmlns="http://www.w3.org/2000/svg">
<path d="M13 3.75007C13 3.56452 12.9176 3.38874 12.7754 3.27039L9.02539 0.145398C8.83984 -0.0121205 8.57812 -0.0426477 8.35938 0.05868C8.14062 0.16243 8 0.382155 8 0.625084V2.50008H6.125C4.05703 2.50008 2.375 4.1821 2.375 6.25006V13.3907C1.27227 13.8711 0.5 14.9688 0.5 16.25C0.5 17.9758 1.89922 19.375 3.625 19.375C5.35156 19.375 6.75 17.9766 6.75 16.25C6.75 14.9692 5.97773 13.8715 4.875 13.3887V6.25006C4.875 5.56022 5.43594 5.00006 6.125 5.00006H8V6.87506C8 7.11799 8.14039 7.33755 8.36012 7.44146C8.44531 7.48052 8.53516 7.50005 8.625 7.50005C8.76844 7.50005 8.91063 7.45123 9.02539 7.35478L12.7754 4.22979C12.918 4.11335 13 3.93757 13 3.75007ZM3.625 17.1875C3.1082 17.1875 2.6875 16.7668 2.6875 16.25C2.6875 15.7332 3.1082 15.3125 3.625 15.3125C4.1418 15.3125 4.5625 15.7332 4.5625 16.25C4.5625 16.7668 4.14062 17.1875 3.625 17.1875ZM17.375 0.625084C15.6484 0.625084 14.25 2.0243 14.25 3.75007C14.25 5.03092 15.0223 6.12858 16.125 6.61139V13.75C16.125 14.4399 15.5641 15 14.875 15H13V13.125C13 12.8821 12.8596 12.6625 12.6399 12.5586C12.422 12.4585 12.1621 12.4878 11.9746 12.6453L8.22465 15.7703C8.08203 15.8906 8 16.0664 8 16.25C8 16.4336 8.08238 16.6113 8.22461 16.7297L11.9746 19.8547C12.0898 19.9531 12.2305 20 12.375 20C12.4647 20 12.5557 19.9805 12.6399 19.9414C12.8594 19.8359 13 19.6172 13 19.375V17.5H14.875C16.943 17.5 18.625 15.818 18.625 13.75V6.60943C19.7266 6.12897 20.5 5.03131 20.5 3.75007C20.5 2.0243 19.1016 0.625084 17.375 0.625084ZM17.375 4.68757C16.8582 4.68757 16.4375 4.26686 16.4375 3.75007C16.4375 3.23328 16.8582 2.81257 17.375 2.81257C17.8918 2.81257 18.3125 3.23328 18.3125 3.75007C18.3125 4.26686 17.8906 4.68757 17.375 4.68757Z" fill="#172554"/>
</svg>
