<svg width="20" height="20" viewBox="0 0 20 20" fill="none" xmlns="http://www.w3.org/2000/svg">
<path d="M6.66016 16.0118H5.92232C5.80309 16.0116 5.6888 15.9642 5.6045 15.8799C5.52019 15.7956 5.47276 15.6813 5.47258 15.5621V12.9688C5.47261 12.8367 5.43346 12.7075 5.36008 12.5977C5.28669 12.4878 5.18238 12.4022 5.06033 12.3517C4.93829 12.3011 4.80399 12.2879 4.67443 12.3137C4.54487 12.3395 4.42587 12.4031 4.33248 12.4966L2.75715 14.0719C2.69514 14.1339 2.64595 14.2075 2.61239 14.2885C2.57883 14.3696 2.56155 14.4564 2.56155 14.5441C2.56155 14.6318 2.57883 14.7186 2.61239 14.7997C2.64595 14.8807 2.69514 14.9543 2.75715 15.0163C2.88239 15.1415 3.05224 15.2119 3.22936 15.2119C3.31705 15.2119 3.40389 15.1946 3.48491 15.1611C3.56593 15.1275 3.63955 15.0783 3.70156 15.0163L4.1368 14.5814V15.5621C4.13731 16.0355 4.32559 16.4893 4.66033 16.8241C4.99507 17.1588 5.44893 17.3471 5.92232 17.3476H6.66016C6.83729 17.3476 7.00717 17.2772 7.13243 17.152C7.25768 17.0267 7.32805 16.8568 7.32805 16.6797C7.32805 16.5026 7.25768 16.3327 7.13243 16.2074C7.00717 16.0822 6.83729 16.0118 6.66016 16.0118Z" fill="#172554"/>
<path d="M13.3398 3.98819H14.0791C14.198 3.98834 14.3119 4.03561 14.396 4.11965C14.48 4.20369 14.5273 4.31763 14.5274 4.43648V7.03124C14.5274 7.16333 14.5666 7.29247 14.6399 7.40231C14.7133 7.51215 14.8176 7.59776 14.9397 7.6483C15.0617 7.69885 15.196 7.71207 15.3256 7.68628C15.4551 7.6605 15.5741 7.59687 15.6675 7.50344L17.2429 5.92811C17.3049 5.8661 17.3541 5.79248 17.3876 5.71146C17.4212 5.63044 17.4384 5.5436 17.4384 5.4559C17.4384 5.36821 17.4212 5.28137 17.3876 5.20035C17.3541 5.11933 17.3049 5.04571 17.2429 4.9837C17.1808 4.92169 17.1072 4.8725 17.0262 4.83894C16.9452 4.80538 16.8583 4.7881 16.7706 4.7881C16.683 4.7881 16.5961 4.80538 16.5151 4.83894C16.4341 4.8725 16.3605 4.92169 16.2984 4.9837L15.8632 5.41857V4.43648C15.8627 3.96346 15.6746 3.50995 15.3401 3.17548C15.0057 2.841 14.5521 2.65288 14.0791 2.6524H13.3398C13.1627 2.6524 12.9928 2.72277 12.8676 2.84803C12.7423 2.97328 12.672 3.14316 12.672 3.3203C12.672 3.49744 12.7423 3.66732 12.8676 3.79257C12.9928 3.91783 13.1627 3.98819 13.3398 3.98819Z" fill="#172554"/>
<path d="M13.3421 13.983C13.561 13.7554 13.7673 13.5159 13.9598 13.2656H12.7236C12.9166 13.5158 13.1231 13.7553 13.3421 13.983Z" fill="#172554"/>
<path d="M17.793 8.5899H11.7812V1.83592C11.7812 1.74821 11.7639 1.66136 11.7304 1.58032C11.6968 1.49929 11.6476 1.42565 11.5856 1.36363C11.5236 1.30161 11.4499 1.25242 11.3689 1.21885C11.2878 1.18529 11.201 1.16802 11.1133 1.16803H2.20703C2.11932 1.16802 2.03247 1.18529 1.95143 1.21885C1.8704 1.25242 1.79676 1.30161 1.73474 1.36363C1.67272 1.42565 1.62352 1.49929 1.58996 1.58032C1.5564 1.66136 1.53913 1.74821 1.53914 1.83592V10.7422C1.53913 10.8299 1.5564 10.9167 1.58996 10.9978C1.62352 11.0788 1.67272 11.1524 1.73474 11.2145C1.79676 11.2765 1.8704 11.3257 1.95143 11.3592C2.03247 11.3928 2.11932 11.4101 2.20703 11.4101H8.21883V18.164C8.21882 18.2518 8.23609 18.3386 8.26965 18.4197C8.30321 18.5007 8.35241 18.5743 8.41443 18.6363C8.47645 18.6984 8.55008 18.7476 8.63112 18.7811C8.71216 18.8147 8.79901 18.832 8.88672 18.8319H17.793C17.8807 18.832 17.9675 18.8147 18.0486 18.7811C18.1296 18.7476 18.2032 18.6984 18.2653 18.6363C18.3273 18.5743 18.3765 18.5007 18.41 18.4197C18.4436 18.3386 18.4609 18.2518 18.4609 18.164V9.2578C18.4609 9.17009 18.4436 9.08323 18.41 9.0022C18.3765 8.92116 18.3273 8.84753 18.2653 8.78551C18.2032 8.72349 18.1296 8.67429 18.0486 8.64073C17.9675 8.60717 17.8807 8.5899 17.793 8.5899ZM9.11322 7.8459L7.25775 4.13497C7.03089 3.68197 6.28943 3.68197 6.06257 4.13497L4.2071 7.8459C4.1279 8.0044 4.11491 8.18786 4.17098 8.35593C4.22705 8.524 4.34759 8.66291 4.50608 8.74211C4.66457 8.8213 4.84803 8.8343 5.0161 8.77823C5.18417 8.72216 5.32308 8.60162 5.40228 8.44313L5.58869 8.07022H7.73164L7.91805 8.44313C7.9655 8.53669 8.03451 8.61763 8.11939 8.67927C8.20427 8.74091 8.30259 8.78148 8.40624 8.79765C8.28653 8.92097 8.21935 9.08593 8.21883 9.2578V10.0743H2.87493V2.50382H10.4454V8.5899H9.00912C9.09945 8.49084 9.15772 8.36678 9.1763 8.23401C9.19487 8.10124 9.17288 7.96596 9.11322 7.8459ZM7.06382 6.73444H6.25649L6.66016 5.92701L7.06382 6.73444ZM15.9375 13.2655H15.5824C15.2277 13.8404 14.8141 14.3768 14.3483 14.866C14.7991 15.2016 15.2912 15.4778 15.8125 15.6878C15.8942 15.7199 15.9689 15.7679 16.0321 15.8289C16.0953 15.8899 16.1458 15.9628 16.1808 16.0434C16.2157 16.124 16.2345 16.2107 16.2359 16.2986C16.2373 16.3864 16.2214 16.4737 16.189 16.5554C16.1566 16.637 16.1084 16.7115 16.0472 16.7745C15.986 16.8376 15.913 16.8879 15.8323 16.9226C15.7516 16.9574 15.6648 16.9759 15.577 16.977C15.4891 16.9782 15.4019 16.962 15.3203 16.9294C14.6087 16.644 13.9417 16.258 13.3398 15.7831C12.7379 16.258 12.071 16.644 11.3593 16.9294C11.2812 16.9607 11.1978 16.9768 11.1136 16.9768C10.9582 16.9768 10.8077 16.9227 10.6879 16.8236C10.5681 16.7246 10.4866 16.5869 10.4574 16.4342C10.4283 16.2815 10.4532 16.1235 10.528 15.9872C10.6028 15.851 10.7228 15.7451 10.8672 15.6878C11.3887 15.478 11.8812 15.2022 12.3327 14.8673C11.8664 14.3778 11.4524 13.8409 11.0973 13.2655H10.7422C10.5651 13.2655 10.3952 13.1952 10.2699 13.0699C10.1447 12.9446 10.0743 12.7748 10.0743 12.5976C10.0743 12.4205 10.1447 12.2506 10.2699 12.1254C10.3952 12.0001 10.5651 11.9297 10.7422 11.9297H12.672V11.1133C12.672 10.9361 12.7423 10.7662 12.8676 10.641C12.9928 10.5157 13.1627 10.4454 13.3398 10.4454C13.517 10.4454 13.6869 10.5157 13.8121 10.641C13.9374 10.7662 14.0077 10.9361 14.0077 11.1133V11.9297H15.9375C16.1146 11.9297 16.2845 12.0001 16.4098 12.1254C16.535 12.2506 16.6054 12.4205 16.6054 12.5976C16.6054 12.7748 16.535 12.9447 16.4098 13.0699C16.2845 13.1952 16.1146 13.2655 15.9375 13.2655Z" fill="#172554"/>
</svg>
