<svg width="21" height="21" viewBox="0 0 21 21" fill="none" xmlns="http://www.w3.org/2000/svg">
<path d="M10.0159 12.7222C12.7773 12.7222 15.0159 10.0658 15.0159 6.78886C15.0159 3.51197 12.7773 0.85553 10.0159 0.85553C7.25445 0.85553 5.01587 3.51197 5.01587 6.78886C5.01587 10.0658 7.25445 12.7222 10.0159 12.7222Z" fill="#172554"/>
<path d="M19.8158 17.7655C18.9158 15.9855 17.2158 14.5022 15.0158 13.6122C14.4158 13.4144 13.7158 13.4144 13.2158 13.7111C12.2158 14.3044 11.2158 14.6011 10.0158 14.6011C8.81584 14.6011 7.81584 14.3044 6.81584 13.7111C6.31584 13.5133 5.61584 13.4144 5.01584 13.7111C2.81584 14.6011 1.11584 16.0844 0.215842 17.8644C-0.484158 19.15 0.615842 20.6333 2.11584 20.6333H17.9158C19.4158 20.6333 20.5158 19.15 19.8158 17.7655Z" fill="#172554"/>
</svg>
