<svg width="20" height="20" viewBox="0 0 20 20" fill="none" xmlns="http://www.w3.org/2000/svg">
<g clip-path="url(#clip0_22_874)">
<path d="M5.20001 19.6C6.30458 19.6 7.20001 18.7045 7.20001 17.6C7.20001 16.4954 6.30458 15.6 5.20001 15.6C4.09544 15.6 3.20001 16.4954 3.20001 17.6C3.20001 18.7045 4.09544 19.6 5.20001 19.6Z" stroke="#172554" stroke-width="2" stroke-miterlimit="10"/>
<path d="M15.6 19.6C16.7045 19.6 17.6 18.7045 17.6 17.6C17.6 16.4954 16.7045 15.6 15.6 15.6C14.4954 15.6 13.6 16.4954 13.6 17.6C13.6 18.7045 14.4954 19.6 15.6 19.6Z" stroke="#172554" stroke-width="2" stroke-miterlimit="10"/>
<path d="M18 17.6H18.8C19.2072 17.6 19.6 17.2072 19.6 16.8C19.6 16.8 19.6 13.6532 19.6 12.954C19.6 12.2544 19.0344 11.4624 19.0344 11.4624L17.3844 9.26162C17.0468 8.85482 16.542 8.40002 16 8.40002H12.8C12.3928 8.40002 12 8.79322 12 9.20002V16.8C12 17.2056 12.3952 17.5968 12.8 17.6H13.6M19.6 13.2C19.6 13.2 15.6 13.2 15.2 13.2C14.8 13.2 14.4 12.8 14.4 12.4C14.4 12.1692 14.4 11.4048 14.4 10.8C14.4 10.3572 14.8 10 15.2 10C15.6 10 17.9384 10 17.9384 10" stroke="#172554" stroke-width="2" stroke-miterlimit="10"/>
<path d="M7.20002 17.6H11.2616C11.668 17.6 12 17.2684 12 16.8616V6.40001C12 5.99321 11.1452 5.56921 10.7384 5.56921H1.13842C0.731624 5.56921 0.400024 5.90081 0.400024 6.30761V16.8C0.400024 17.2072 0.793224 17.6 1.20002 17.6H3.20002" stroke="#172554" stroke-width="2" stroke-miterlimit="10"/>
</g>
<defs>
<clipPath id="clip0_22_874">
<rect width="20" height="20" fill="white"/>
</clipPath>
</defs>
</svg>
